<svg id="Layer_1" enable-background="new 0 0 512 512" height="512" viewBox="0 0 512 512" width="512" xmlns="http://www.w3.org/2000/svg"><g><g clip-rule="evenodd" fill-rule="evenodd"><path d="m225.329 322.814h61.343v97.002h-61.343z" fill="#dd636e"/><path d="m377.069 214.302c39.884 0 72.54-32.655 72.54-72.54v-108.086c0-3.572-2.041-5.981-6.01-5.981h-71.519v33.619h37.872c4.053 0 6.009 1.957 6.009 6.01v74.438c0 21.317-17.575 38.892-38.892 38.892l-2.41 15.194zm-242.138 0c-39.912 0-72.54-32.655-72.54-72.54v-108.086c0-3.572 2.041-5.981 6.01-5.981h71.519v33.619h-37.9c-4.054 0-5.981 1.957-5.981 6.01v74.438c0 21.317 17.547 38.892 38.892 38.892l3.288 15.251z" fill="#ff9838"/><path d="m377.069 214.302c0 66.587-54.482 121.069-121.069 121.069s-121.069-54.482-121.069-121.069c0-69.45 0-138.871 0-208.292 0-3.316 2.693-6.01 5.981-6.01h230.148c3.316 0 6.01 2.693 6.01 6.01-.001 69.421-.001 138.842-.001 208.292z" fill="#ffc250"/><path d="m377.069 214.302c0 66.587-54.482 121.069-121.069 121.069s-121.069-54.482-121.069-121.069v-25.002c0 66.587 54.482 121.069 121.069 121.069s121.069-54.482 121.069-121.069z" fill="#ebb044"/><path d="m377.069 214.302c39.884 0 72.54-32.655 72.54-72.54v-25.002c0 39.884-32.656 72.539-72.54 72.539zm-242.138 0c-39.912 0-72.54-32.655-72.54-72.54v-25.002c0 39.884 32.627 72.539 72.54 72.539z" fill="#ff8709"/><path d="m190.547 419.816h130.906c20.41 0 37.106 16.696 37.106 37.107h-205.118c0-20.411 16.697-37.107 37.106-37.107z" fill="#ffc250"/><path d="m348.807 431.92c6.038 6.605 9.751 15.393 9.751 25.003h-205.117c0-9.61 3.713-18.397 9.751-25.003z" fill="#ebb044"/><path d="m125.52 456.922h260.96c5.499 0 10.006 4.507 10.006 10.006v35.094c0 5.499-4.507 9.978-10.006 9.978h-260.96c-5.499 0-10.006-4.479-10.006-9.978v-35.094c0-5.499 4.507-10.006 10.006-10.006z" fill="#ff9838"/><path d="m396.486 477.02v25.003c0 5.499-4.507 9.978-10.006 9.978h-260.96c-5.499 0-10.006-4.479-10.006-9.978v-25.003c0 5.5 4.507 9.978 10.006 9.978h260.96c5.499 0 10.006-4.479 10.006-9.978z" fill="#ff8709"/><path d="m256 243.556c47.31 0 85.891-38.58 85.891-85.862 0-47.311-38.58-85.891-85.891-85.891s-85.891 38.58-85.891 85.891c0 47.282 38.58 85.862 85.891 85.862z" fill="#fff0af"/><path d="m256 71.803c2.523 0 5.017.113 7.483.34v11.65c0 4.138-3.345 7.483-7.483 7.483-4.139 0-7.512-3.345-7.512-7.483v-11.65c2.467-.227 4.989-.34 7.512-.34zm36.313 8.05c4.535 2.126 8.872 4.621 12.954 7.483l-5.839 10.091c-2.069 3.572-6.662 4.791-10.233 2.722-3.572-2.069-4.79-6.633-2.722-10.205zm34.044 28.574c2.863 4.082 5.357 8.419 7.483 12.954l-10.091 5.839c-3.572 2.069-8.164.85-10.233-2.75-2.069-3.572-.851-8.136 2.75-10.205zm15.193 41.755c.199 2.466.34 4.989.34 7.512s-.142 5.018-.34 7.483h-11.65c-4.138 0-7.512-3.345-7.512-7.483 0-4.139 3.374-7.512 7.512-7.512zm-7.71 43.824c-2.126 4.535-4.621 8.872-7.483 12.926l-10.092-5.811c-3.6-2.069-4.819-6.661-2.75-10.233s6.662-4.791 10.233-2.722zm-28.573 34.044c-4.082 2.834-8.419 5.357-12.954 7.484l-5.84-10.092c-2.069-3.571-.85-8.164 2.722-10.233 3.571-2.069 8.164-.851 10.233 2.721zm-41.784 15.194c-2.466.198-4.961.312-7.483.312-2.523 0-5.045-.113-7.512-.312v-11.651c0-4.139 3.373-7.512 7.512-7.512s7.483 3.373 7.483 7.512zm-43.795-7.71c-4.535-2.127-8.872-4.649-12.954-7.484l5.839-10.12c2.069-3.572 6.633-4.791 10.233-2.721 3.572 2.069 4.791 6.662 2.721 10.233zm-34.045-28.602c-2.863-4.053-5.357-8.391-7.483-12.926l10.091-5.84c3.572-2.069 8.136-.851 10.205 2.722 2.069 3.572.85 8.164-2.721 10.233zm-15.194-41.755c-.227-2.466-.34-4.961-.34-7.483 0-2.523.113-5.046.34-7.512h11.65c4.139 0 7.512 3.373 7.512 7.512s-3.374 7.483-7.512 7.483zm7.711-43.796c2.126-4.536 4.621-8.873 7.483-12.954l10.092 5.839c3.572 2.069 4.79 6.633 2.721 10.205-2.069 3.6-6.633 4.819-10.205 2.75zm28.573-34.045c4.082-2.863 8.419-5.357 12.954-7.483l5.839 10.091c2.069 3.572.85 8.136-2.721 10.205-3.6 2.069-8.164.85-10.233-2.722z" fill="#ff9838"/></g><path d="m247.269 124.329c-4.138 0-7.512-3.373-7.512-7.512s3.374-7.512 7.512-7.512h17.462c4.138 0 7.512 3.373 7.512 7.512v81.752c0 4.138-3.374 7.483-7.512 7.483-4.139 0-7.512-3.345-7.512-7.483v-74.241h-9.95z" fill="#ff8709"/><path d="m317.853 47.453c3.6 2.013 4.904 6.576 2.863 10.205-2.013 3.6-6.576 4.875-10.176 2.863-8.221-4.621-17.036-8.221-26.306-10.658-8.958-2.325-18.425-3.572-28.233-3.572-9.836 0-19.276 1.247-28.262 3.572-9.241 2.438-18.057 6.038-26.277 10.658-3.6 2.012-8.164.737-10.205-2.863-2.013-3.628-.737-8.192 2.863-10.205 9.27-5.216 19.275-9.298 29.877-12.047 10.291-2.693 21.005-4.11 32.004-4.11 10.998 0 21.713 1.417 32.003 4.11 10.573 2.749 20.607 6.831 29.849 12.047zm-123.734 220.481c-3.6-2.04-4.876-6.604-2.863-10.205 2.041-3.6 6.605-4.904 10.205-2.863 8.221 4.621 17.036 8.22 26.277 10.63 8.986 2.353 18.425 3.6 28.262 3.6 9.808 0 19.275-1.248 28.233-3.6 9.27-2.41 18.085-6.009 26.306-10.63 3.6-2.041 8.164-.737 10.176 2.863 2.042 3.6.737 8.164-2.863 10.205-9.241 5.188-19.276 9.27-29.849 12.048-10.29 2.665-21.005 4.11-32.003 4.11-10.999 0-21.713-1.446-32.004-4.11-10.601-2.779-20.607-6.861-29.877-12.048z" fill="#ff9838"/><path clip-rule="evenodd" d="m225.329 394.814h61.343v25.002h-61.343z" fill="#da4a54" fill-rule="evenodd"/></g></svg>